<mxfile host="app.diagrams.net" agent="Mozilla/5.0 (Linux; Android 10; K) AppleWebKit/537.36 (KHTML, like Gecko) Chrome/136.0.0.0 Safari/537.36" version="26.2.10">
  <diagram name="PÃ¡gina-1" id="Dgzqg49w7XVf4Nis1xwr">
    <mxGraphModel dx="330" dy="370" grid="0" gridSize="10" guides="1" tooltips="1" connect="1" arrows="1" fold="1" page="0" pageScale="1" pageWidth="827" pageHeight="1169" math="0" shadow="0">
      <root>
        <mxCell id="0" />
        <mxCell id="1" parent="0" />
        <mxCell id="oQIdRqJ1LRzrGyN1kCUl-2" value="&amp;lt;&amp;lt;Interface Servico&amp;gt;&amp;gt;&lt;div&gt;Mensagem&lt;/div&gt;" style="swimlane;fontStyle=0;childLayout=stackLayout;horizontal=1;startSize=30;horizontalStack=0;resizeParent=1;resizeParentMax=0;resizeLast=0;collapsible=1;marginBottom=0;whiteSpace=wrap;html=1;" vertex="1" parent="1">
          <mxGeometry x="130" y="217" width="192" height="60" as="geometry" />
        </mxCell>
        <mxCell id="oQIdRqJ1LRzrGyN1kCUl-3" value="+Enviar Mensagem():Mensagem" style="text;strokeColor=none;fillColor=none;align=left;verticalAlign=middle;spacingLeft=4;spacingRight=4;overflow=hidden;points=[[0,0.5],[1,0.5]];portConstraint=eastwest;rotatable=0;whiteSpace=wrap;html=1;" vertex="1" parent="oQIdRqJ1LRzrGyN1kCUl-2">
          <mxGeometry y="30" width="192" height="30" as="geometry" />
        </mxCell>
        <mxCell id="oQIdRqJ1LRzrGyN1kCUl-6" value="&amp;lt;&amp;lt;Mediacao&amp;gt;&amp;gt;&lt;div&gt;Mensagem Mediacao&lt;/div&gt;" style="swimlane;fontStyle=0;childLayout=stackLayout;horizontal=1;startSize=30;horizontalStack=0;resizeParent=1;resizeParentMax=0;resizeLast=0;collapsible=1;marginBottom=0;whiteSpace=wrap;html=1;" vertex="1" parent="1">
          <mxGeometry x="130" y="330" width="193" height="60" as="geometry">
            <mxRectangle x="130" y="330" width="151" height="41" as="alternateBounds" />
          </mxGeometry>
        </mxCell>
        <mxCell id="oQIdRqJ1LRzrGyN1kCUl-7" value="&amp;lt;&amp;lt;Interface Servico&amp;gt;&amp;gt; Mensagem" style="text;strokeColor=none;fillColor=none;align=left;verticalAlign=middle;spacingLeft=4;spacingRight=4;overflow=hidden;points=[[0,0.5],[1,0.5]];portConstraint=eastwest;rotatable=0;whiteSpace=wrap;html=1;" vertex="1" parent="1">
          <mxGeometry x="130" y="360" width="191" height="30" as="geometry" />
        </mxCell>
      </root>
    </mxGraphModel>
  </diagram>
</mxfile>
